<?xml version="1.0" encoding="utf-8"?>
<!-- Generator: Adobe Illustrator 22.1.0, SVG Export Plug-In . SVG Version: 6.00 Build 0)  -->
<svg version="1.1" xmlns="http://www.w3.org/2000/svg" xmlns:xlink="http://www.w3.org/1999/xlink" x="0px" y="0px"
	 viewBox="0 0 1008 672" style="enable-background:new 0 0 1008 672;" xml:space="preserve">
<style type="text/css">
	.st0{display:none;}
	.st1{display:inline;}
	.st2{display:inline;fill:#FFFFFF;}
	.st3{display:inline;fill:none;stroke:#000000;stroke-width:30;stroke-miterlimit:10;}
	.st4{fill:#FFFFFF;}
	.st5{fill:none;stroke:#000000;stroke-width:30;stroke-miterlimit:10;}
</style>
<g id="guides" class="st0">
	<g class="st1">
	</g>
	<g class="st1">
		<g>
		</g>
	</g>
</g>
<g id="lines" class="st0">
	<polygon class="st1" points="67,636.3 67,436 285.5,336 285.5,436 504,336 504,436 722.5,336 722.5,636.3 	"/>
	<rect x="732.5" y="136" class="st1" width="100" height="500.3"/>
	<polygon class="st1" points="562.9,399 562.9,136 662.9,136 662.9,353.3 	"/>
	<rect x="117.4" y="464.6" class="st2" width="50.4" height="28.6"/>
	<rect x="218.2" y="464.6" class="st2" width="50.4" height="28.6"/>
	<rect x="319.1" y="464.6" class="st2" width="50.4" height="28.6"/>
	<rect x="420" y="464.6" class="st2" width="50.4" height="28.6"/>
	<rect x="520.8" y="464.6" class="st2" width="50.4" height="28.6"/>
	<rect x="621.7" y="464.6" class="st2" width="50.4" height="28.6"/>
	<rect x="117.4" y="521.9" class="st2" width="50.4" height="28.6"/>
	<rect x="218.2" y="521.9" class="st2" width="50.4" height="28.6"/>
	<rect x="319.1" y="521.9" class="st2" width="50.4" height="28.6"/>
	<rect x="420" y="521.9" class="st2" width="50.4" height="28.6"/>
	<rect x="520.8" y="521.9" class="st2" width="50.4" height="28.6"/>
	<rect x="621.7" y="521.9" class="st2" width="50.4" height="28.6"/>
	<rect x="117.4" y="579.1" class="st2" width="50.4" height="28.6"/>
	<rect x="218.2" y="579.1" class="st2" width="50.4" height="28.6"/>
	<rect x="319.1" y="579.1" class="st2" width="50.4" height="28.6"/>
	<rect x="420" y="579.1" class="st2" width="50.4" height="28.6"/>
	<rect x="520.8" y="579.1" class="st2" width="50.4" height="28.6"/>
	<rect x="621.7" y="579.1" class="st2" width="50.4" height="28.6"/>
	<circle class="st1" cx="164.7" cy="123" r="35"/>
	<path class="st3" d="M612.9,126c0-49.8-48.7-90-108.9-90c-167.1,0-109.2,231.6-302.3,232.7c-74.3,0.4-134.5-60.2-134.5-134.5
		c0-55.5,45-100.6,100.6-100.6c41.5,0,75.2,33.7,75.2,75.2c0,31.1-25.2,56.2-56.2,56.2c-23.2,0-42-18.8-42-42"/>
</g>
<g id="centered">
	<g>
		<polygon points="128.6,644.9 128.6,444.5 347.1,344.5 347.1,444.5 565.6,344.5 565.6,444.5 784.2,344.5 784.2,644.9 		"/>
		<rect x="794.2" y="144.5" width="100" height="500.3"/>
		<polygon points="624.5,407.6 624.5,144.5 724.5,144.5 724.5,361.8 		"/>
		<rect x="179" y="473.1" class="st4" width="50.4" height="28.6"/>
		<rect x="279.9" y="473.1" class="st4" width="50.4" height="28.6"/>
		<rect x="380.7" y="473.1" class="st4" width="50.4" height="28.6"/>
		<rect x="481.6" y="473.1" class="st4" width="50.4" height="28.6"/>
		<rect x="582.5" y="473.1" class="st4" width="50.4" height="28.6"/>
		<rect x="683.3" y="473.1" class="st4" width="50.4" height="28.6"/>
		<rect x="179" y="530.4" class="st4" width="50.4" height="28.6"/>
		<rect x="279.9" y="530.4" class="st4" width="50.4" height="28.6"/>
		<rect x="380.7" y="530.4" class="st4" width="50.4" height="28.6"/>
		<rect x="481.6" y="530.4" class="st4" width="50.4" height="28.6"/>
		<rect x="582.5" y="530.4" class="st4" width="50.4" height="28.6"/>
		<rect x="683.3" y="530.4" class="st4" width="50.4" height="28.6"/>
		<rect x="179" y="587.6" class="st4" width="50.4" height="28.6"/>
		<rect x="279.9" y="587.6" class="st4" width="50.4" height="28.6"/>
		<rect x="380.7" y="587.6" class="st4" width="50.4" height="28.6"/>
		<rect x="481.6" y="587.6" class="st4" width="50.4" height="28.6"/>
		<rect x="582.5" y="587.6" class="st4" width="50.4" height="28.6"/>
		<rect x="683.3" y="587.6" class="st4" width="50.4" height="28.6"/>
		<circle cx="226.3" cy="131.5" r="35"/>
		<path class="st5" d="M674.5,134.5c0-49.8-48.7-90-108.9-90c-167.1,0-109.2,231.6-302.3,232.7c-74.3,0.4-134.5-60.2-134.5-134.5
			c0-55.5,45-100.6,100.6-100.6c41.5,0,75.2,33.7,75.2,75.2c0,31.1-25.2,56.2-56.2,56.2c-23.2,0-42-18.8-42-42"/>
	</g>
</g>
</svg>
