<?xml version="1.0" encoding="utf-8"?>
<!-- Generator: Adobe Illustrator 22.1.0, SVG Export Plug-In . SVG Version: 6.00 Build 0)  -->
<svg version="1.1" xmlns="http://www.w3.org/2000/svg" xmlns:xlink="http://www.w3.org/1999/xlink" x="0px" y="0px"
	 viewBox="0 0 1008 672" style="enable-background:new 0 0 1008 672;" xml:space="preserve">
<style type="text/css">
	.st0{display:none;}
	.st1{fill:#1A1A1A;}
	.st2{fill:none;stroke:#000000;stroke-width:20;stroke-linecap:round;stroke-miterlimit:10;}
	.st3{fill:none;stroke:#ED1C24;stroke-width:10;stroke-linecap:round;stroke-miterlimit:10;}
	.st4{fill:none;stroke:#F15A24;stroke-width:6;stroke-linecap:round;stroke-miterlimit:10;}
	.st5{fill:none;stroke:#F7931E;stroke-width:2;stroke-linecap:round;stroke-miterlimit:10;}
</style>
<g id="guides" class="st0">
</g>
<g id="drawing">
	<rect x="-12" y="-12" class="st1" width="1032" height="696"/>
	<g>
		<path class="st2" d="M812,336c0,170.2-137.8,308-308,308S196,506.2,196,336c0-163.7,132.5-296.2,296.2-296.2
			S788.3,172.3,788.3,336c0,157.1-127.2,284.3-284.3,284.3S219.7,493.1,219.7,336c0-150.6,121.9-272.5,272.5-272.5
			S764.6,185.4,764.6,336c0,144.1-116.6,260.6-260.6,260.6S243.4,480.1,243.4,336c0-137.5,111.3-248.8,248.8-248.8
			S740.9,198.5,740.9,336c0,131-106,236.9-236.9,236.9S267.1,467,267.1,336c0-124.4,100.7-225.1,225.1-225.1S717.2,211.6,717.2,336
			c0,117.9-95.4,213.2-213.2,213.2S290.8,453.9,290.8,336c0-111.3,90.1-201.4,201.4-201.4S693.5,224.7,693.5,336
			c0,104.8-84.8,189.5-189.5,189.5S314.5,440.8,314.5,336c0-98.2,79.5-177.7,177.7-177.7S669.8,237.8,669.8,336
			c0,91.7-74.2,165.8-165.8,165.8S338.2,427.7,338.2,336c0-85.1,68.9-154,154-154s154,68.9,154,154c0,78.6-63.6,142.2-142.2,142.2
			S361.8,414.6,361.8,336c0-72,58.3-130.3,130.3-130.3S622.5,264,622.5,336c0,65.5-53,118.5-118.5,118.5s-118.5-53-118.5-118.5
			c0-58.9,47.7-106.6,106.6-106.6S598.8,277.1,598.8,336c0,52.4-42.4,94.8-94.8,94.8s-94.8-42.4-94.8-94.8
			c0-45.8,37.1-82.9,82.9-82.9s82.9,37.1,82.9,82.9c0,39.3-31.8,71.1-71.1,71.1s-71.1-31.8-71.1-71.1c0-32.7,26.5-59.2,59.2-59.2
			s59.2,26.5,59.2,59.2c0,26.2-21.2,47.4-47.4,47.4s-47.4-21.2-47.4-47.4c0-19.6,15.9-35.5,35.5-35.5c19.6,0,35.5,15.9,35.5,35.5
			c0,13.1-10.6,23.7-23.7,23.7c-13.1,0-23.7-10.6-23.7-23.7c0-6.5,5.3-11.8,11.8-11.8c6.5,0,11.8,5.3,11.8,11.8"/>
		<path class="st3" d="M810,334c0,170.2-137.8,308-308,308S194,504.2,194,334c0-163.7,132.5-296.2,296.2-296.2
			S786.3,170.3,786.3,334c0,157.1-127.2,284.3-284.3,284.3S217.7,491.1,217.7,334c0-150.6,121.9-272.5,272.5-272.5
			S762.6,183.4,762.6,334c0,144.1-116.6,260.6-260.6,260.6S241.4,478.1,241.4,334c0-137.5,111.3-248.8,248.8-248.8
			S738.9,196.5,738.9,334c0,131-106,236.9-236.9,236.9S265.1,465,265.1,334c0-124.4,100.7-225.1,225.1-225.1S715.2,209.6,715.2,334
			c0,117.9-95.4,213.2-213.2,213.2S288.8,451.9,288.8,334c0-111.3,90.1-201.4,201.4-201.4S691.5,222.7,691.5,334
			c0,104.8-84.8,189.5-189.5,189.5S312.5,438.8,312.5,334c0-98.2,79.5-177.7,177.7-177.7S667.8,235.8,667.8,334
			c0,91.7-74.2,165.8-165.8,165.8S336.2,425.7,336.2,334c0-85.1,68.9-154,154-154s154,68.9,154,154c0,78.6-63.6,142.2-142.2,142.2
			S359.8,412.6,359.8,334c0-72,58.3-130.3,130.3-130.3S620.5,262,620.5,334c0,65.5-53,118.5-118.5,118.5s-118.5-53-118.5-118.5
			c0-58.9,47.7-106.6,106.6-106.6S596.8,275.1,596.8,334c0,52.4-42.4,94.8-94.8,94.8s-94.8-42.4-94.8-94.8
			c0-45.8,37.1-82.9,82.9-82.9s82.9,37.1,82.9,82.9c0,39.3-31.8,71.1-71.1,71.1s-71.1-31.8-71.1-71.1c0-32.7,26.5-59.2,59.2-59.2
			s59.2,26.5,59.2,59.2c0,26.2-21.2,47.4-47.4,47.4s-47.4-21.2-47.4-47.4c0-19.6,15.9-35.5,35.5-35.5c19.6,0,35.5,15.9,35.5,35.5
			c0,13.1-10.6,23.7-23.7,23.7c-13.1,0-23.7-10.6-23.7-23.7c0-6.5,5.3-11.8,11.8-11.8c6.5,0,11.8,5.3,11.8,11.8"/>
		<path class="st4" d="M809,333c0,170.2-137.8,308-308,308S193,503.2,193,333c0-163.7,132.5-296.2,296.2-296.2
			S785.3,169.3,785.3,333c0,157.1-127.2,284.3-284.3,284.3S216.7,490.1,216.7,333c0-150.6,121.9-272.5,272.5-272.5
			S761.6,182.4,761.6,333c0,144.1-116.6,260.6-260.6,260.6S240.4,477.1,240.4,333c0-137.5,111.3-248.8,248.8-248.8
			S737.9,195.5,737.9,333c0,131-106,236.9-236.9,236.9S264.1,464,264.1,333c0-124.4,100.7-225.1,225.1-225.1S714.2,208.6,714.2,333
			c0,117.9-95.4,213.2-213.2,213.2S287.8,450.9,287.8,333c0-111.3,90.1-201.4,201.4-201.4S690.5,221.7,690.5,333
			c0,104.8-84.8,189.5-189.5,189.5S311.5,437.8,311.5,333c0-98.2,79.5-177.7,177.7-177.7S666.8,234.8,666.8,333
			c0,91.7-74.2,165.8-165.8,165.8S335.2,424.7,335.2,333c0-85.1,68.9-154,154-154s154,68.9,154,154c0,78.6-63.6,142.2-142.2,142.2
			S358.8,411.6,358.8,333c0-72,58.3-130.3,130.3-130.3S619.5,261,619.5,333c0,65.5-53,118.5-118.5,118.5s-118.5-53-118.5-118.5
			c0-58.9,47.7-106.6,106.6-106.6S595.8,274.1,595.8,333c0,52.4-42.4,94.8-94.8,94.8s-94.8-42.4-94.8-94.8
			c0-45.8,37.1-82.9,82.9-82.9s82.9,37.1,82.9,82.9c0,39.3-31.8,71.1-71.1,71.1s-71.1-31.8-71.1-71.1c0-32.7,26.5-59.2,59.2-59.2
			s59.2,26.5,59.2,59.2c0,26.2-21.2,47.4-47.4,47.4s-47.4-21.2-47.4-47.4c0-19.6,15.9-35.5,35.5-35.5c19.6,0,35.5,15.9,35.5,35.5
			c0,13.1-10.6,23.7-23.7,23.7c-13.1,0-23.7-10.6-23.7-23.7c0-6.5,5.3-11.8,11.8-11.8c6.5,0,11.8,5.3,11.8,11.8"/>
		<path class="st5" d="M808,332c0,170.2-137.8,308-308,308S192,502.2,192,332c0-163.7,132.5-296.2,296.2-296.2
			S784.3,168.3,784.3,332c0,157.1-127.2,284.3-284.3,284.3S215.7,489.1,215.7,332c0-150.6,121.9-272.5,272.5-272.5
			S760.6,181.4,760.6,332c0,144.1-116.6,260.6-260.6,260.6S239.4,476.1,239.4,332c0-137.5,111.3-248.8,248.8-248.8
			S736.9,194.5,736.9,332c0,131-106,236.9-236.9,236.9S263.1,463,263.1,332c0-124.4,100.7-225.1,225.1-225.1S713.2,207.6,713.2,332
			c0,117.9-95.4,213.2-213.2,213.2S286.8,449.9,286.8,332c0-111.3,90.1-201.4,201.4-201.4S689.5,220.7,689.5,332
			c0,104.8-84.8,189.5-189.5,189.5S310.5,436.8,310.5,332c0-98.2,79.5-177.7,177.7-177.7S665.8,233.8,665.8,332
			c0,91.7-74.2,165.8-165.8,165.8S334.2,423.7,334.2,332c0-85.1,68.9-154,154-154s154,68.9,154,154c0,78.6-63.6,142.2-142.2,142.2
			S357.8,410.6,357.8,332c0-72,58.3-130.3,130.3-130.3S618.5,260,618.5,332c0,65.5-53,118.5-118.5,118.5s-118.5-53-118.5-118.5
			c0-58.9,47.7-106.6,106.6-106.6S594.8,273.1,594.8,332c0,52.4-42.4,94.8-94.8,94.8s-94.8-42.4-94.8-94.8
			c0-45.8,37.1-82.9,82.9-82.9s82.9,37.1,82.9,82.9c0,39.3-31.8,71.1-71.1,71.1s-71.1-31.8-71.1-71.1c0-32.7,26.5-59.2,59.2-59.2
			s59.2,26.5,59.2,59.2c0,26.2-21.2,47.4-47.4,47.4s-47.4-21.2-47.4-47.4c0-19.6,15.9-35.5,35.5-35.5c19.6,0,35.5,15.9,35.5,35.5
			c0,13.1-10.6,23.7-23.7,23.7c-13.1,0-23.7-10.6-23.7-23.7c0-6.5,5.3-11.8,11.8-11.8c6.5,0,11.8,5.3,11.8,11.8"/>
	</g>
</g>
</svg>
